<?xml version="1.0" encoding="utf-8"?>
<!-- Generator: Adobe Illustrator 26.0.1, SVG Export Plug-In . SVG Version: 6.00 Build 0)  -->
<svg version="1.1" id="svelte" xmlns="http://www.w3.org/2000/svg" xmlns:xlink="http://www.w3.org/1999/xlink" x="0px" y="0px"
	 viewBox="0 0 807.2 139" style="enable-background:new 0 0 807.2 139;" xml:space="preserve">
<style type="text/css">
	.st0{fill:#4A4A55;}
	.st1{fill:#8D8D93;}
	.st2{fill:#FF4A55;}
	.st3{fill:#FF4A55;stroke:#FFFFFF;stroke-width:8;stroke-miterlimit:10;}
	.st4{fill:#FFFFFF;}
</style>
<path id="svelte-2" class="st0" d="M172.4,100.3c-4.9,0.1-9.6-1.2-13.7-3.9c-3.8-2.5-6.6-6.3-8-10.6l8.4-3.1c1.2,2.7,3,5,5.5,6.6
	c2.4,1.6,5.3,2.5,8.3,2.4c2.8,0.1,5.6-0.7,7.9-2.4c2-1.7,3.1-4.2,2.9-6.8c0-1.2-0.3-2.4-0.8-3.5c-0.5-1-1.1-1.8-1.8-2.6
	c-0.9-0.9-2-1.6-3.2-2.1c-1.4-0.7-2.6-1.2-3.5-1.6c-0.9-0.4-2.3-0.9-4.1-1.5c-2.3-0.8-4-1.4-5.1-1.9c-1.5-0.7-3-1.4-4.5-2.3
	c-1.6-0.8-3-1.9-4.2-3.2c-1.1-1.2-1.9-2.6-2.5-4.1c-2.4-5.9-0.8-12.6,4-16.8c3.4-3,8-4.5,13.9-4.5c4.9,0,8.9,1.1,12.1,3.2
	c3.1,2,5.3,5.1,6.3,8.6l-8.2,2.7c-0.8-1.8-2.2-3.4-4-4.4c-2.1-1.2-4.5-1.8-6.9-1.7c-2.4-0.1-4.7,0.5-6.7,1.9
	c-1.6,1.3-2.5,3.2-2.4,5.3c0,1.6,0.7,3.1,1.9,4.1c1.1,1.1,2.5,2,3.9,2.6c1.4,0.6,3.4,1.3,6.2,2.3c1.7,0.6,3,1.1,3.8,1.4
	c0.8,0.3,2,0.8,3.6,1.6c1.3,0.6,2.5,1.2,3.7,2c1,0.7,2,1.6,3,2.4c1,0.9,1.9,1.9,2.6,3.1c0.7,1.2,1.2,2.5,1.5,3.8
	c0.4,1.6,0.7,3.2,0.6,4.8c0,5.6-1.9,9.9-5.7,13.1C183.3,98.8,178.4,100.3,172.4,100.3z M227.1,99.3l-20.5-59.7h9.5l13.5,41.6
	c0.7,2.2,1.4,4.5,1.9,6.8c0.5-2.3,1.1-4.6,1.9-6.8l13.4-41.6h9.5l-20.4,59.7L227.1,99.3z M274.4,99.3V39.7h37V48h-28.1v16.4h18.2
	v8.4h-18.2V91h30v8.4H274.4z M335.8,99.3V39.7h8.9v51.1h29.1v8.5L335.8,99.3z M407.2,48.2v51.1h-8.9V48.2h-16.9v-8.5h42.6v8.5
	L407.2,48.2z M442.4,99.3V39.7h37V48h-28.1v16.4h18.1v8.4h-18.1V91h30v8.4L442.4,99.3z"/>
<g>
	<path class="st1" d="M524.5,100.3c-3.6,0-6.8-0.6-9.7-1.8c-2.9-1.2-5.2-2.8-7.1-4.8c-1.8-2-3.4-4.3-4.6-7.1
		c-1.2-2.7-2.1-5.5-2.6-8.3c-0.5-2.8-0.8-5.8-0.8-8.9c0-3.6,0.5-7.2,1.4-10.6c0.9-3.5,2.3-6.7,4.1-9.8c1.8-3.1,4.4-5.6,7.7-7.5
		c3.3-1.9,7.2-2.9,11.5-2.9c5.2,0,9.6,1.1,13,3.4c3.5,2.3,5.9,5.1,7.2,8.4l-8.1,3.7c-1.5-2.4-3.2-4.2-5.1-5.4
		c-1.8-1.1-4.2-1.7-7.1-1.7c-2.8,0-5.3,0.7-7.4,2c-2.1,1.4-3.7,3.2-4.9,5.4c-1.1,2.3-2,4.6-2.5,7.1c-0.5,2.5-0.8,5-0.8,7.7
		c0,5.9,1.3,11.1,4,15.6c2.7,4.5,6.5,6.7,11.6,6.7c5,0,9-2.6,12.1-7.7l8.3,3.1C541.1,96,534.3,100.3,524.5,100.3z"/>
	<path class="st1" d="M585.4,100.3c-6.8,0-12.2-1.9-16.3-5.6C565,91,563,85,563,76.8v-37h8.9v37c0,5.6,1.2,9.5,3.6,11.7
		c2.4,2.2,5.7,3.4,10,3.4c4.3,0,7.6-1.1,10-3.4c2.4-2.2,3.6-6.1,3.6-11.7v-37h8.9v37c0,8.3-2,14.3-6,18
		C597.8,98.5,592.3,100.3,585.4,100.3z"/>
	<path class="st1" d="M628.9,39.7h22.6c6.6,0,11.4,1.5,14.3,4.5c3,3,4.5,6.8,4.5,11.4c0,2.6-0.7,4.9-2.1,7.1
		c-1.4,2.2-3.4,3.9-6.1,5.2c3.5,1.2,6.1,3.1,7.8,5.6c1.7,2.5,2.5,5.2,2.5,8.3c0,2.2-0.4,4.2-1.1,6.2c-0.7,2-1.8,3.8-3.3,5.5
		c-1.5,1.7-3.5,3.1-6.2,4.2c-2.6,1.1-5.7,1.6-9.1,1.6h-23.8V39.7z M650,64.3c3.6,0,6.4-0.8,8.3-2.3c1.9-1.5,2.9-3.5,2.9-6
		c0-5.4-3.2-8.2-9.5-8.2h-14v16.4H650z M653.5,91.1c3.6,0,6.1-0.9,7.7-2.6c1.5-1.7,2.3-3.8,2.3-6.3c0-6.5-4.2-9.8-12.5-9.8h-13.1
		v18.6H653.5z"/>
	<path class="st1" d="M691.8,99.3V39.7h36.9v8.3h-28.1v16.3h18.1v8.3h-18.1V91h30v8.3H691.8z"/>
	<path class="st1" d="M749.2,39.7h16.7c5,0,9.4,0.9,13.1,2.6c3.8,1.7,6.7,4,8.9,6.9c2.2,2.9,3.8,6,4.8,9.4c1,3.4,1.6,7,1.6,10.9
		c0,3.7-0.5,7.2-1.5,10.5c-1,3.3-2.5,6.5-4.6,9.4c-2.1,3-5.1,5.4-9,7.1c-3.9,1.8-8.4,2.7-13.7,2.7h-16.3V39.7z M767,91
		c3.2,0,6.1-0.6,8.5-1.9c2.4-1.3,4.3-3,5.7-5.1c1.4-2.1,2.4-4.4,3-6.8c0.6-2.4,0.9-4.9,0.9-7.6c0-6-1.4-11-4.3-15.2
		c-2.9-4.2-7.2-6.3-12.9-6.3H758V91H767z"/>
</g>
<polygon class="st2" points="69.6,4.2 13.1,36.9 13.1,102.1 69.6,134.8 126.1,102.1 126.1,36.9 "/>
<polyline class="st3" points="126.1,36.9 69.6,69.5 13.1,36.9 "/>
<line class="st3" x1="69.6" y1="134.8" x2="69.6" y2="69.5"/>
<path id="white_00000018218525102697515060000012613271482420907448_" class="st4" d="M84.1,46.7c-3.9,3.2-10.5,5.3-16.7,5.2
	c-3.7,0-6.8-0.9-8.6-2.4c-0.3-0.3-0.5-0.5-0.7-0.8l-0.4-0.5l1.3-0.2c2.9-0.4,5.7-1.1,8.4-2.1l0.7-0.2l0.4,0.3
	c0.6,0.4,1.4,0.6,2.4,0.6c1.8,0,3.9-0.6,5-1.5c0.3-0.2,0.5-0.4,0.6-0.7L84.1,32c0.4-0.6,0.3-1.2-0.2-1.6c-0.5-0.5-1.4-0.7-2.5-0.8
	c-1.8-0.1-3.8,0.5-5,1.5c-0.3,0.2-0.5,0.4-0.6,0.7l-2.9,4.7c-0.5,0.8-1.2,1.5-2,2.2c-4,3.2-10.7,5.3-17,5.1c-3.8-0.1-6.9-1-8.7-2.5
	c-1.8-1.5-2-3.6-0.7-5.6l8.1-12.4c0.5-0.8,1.2-1.5,2.1-2.2c4-3.2,10.8-5.1,16.9-4.8c3.6,0.1,6.6,1.1,8.4,2.6
	c0.3,0.3,0.5,0.5,0.7,0.8l0.4,0.5l-1.2,0.2c-2.8,0.4-5.6,1-8.2,1.9l-0.7,0.2l-0.4-0.3c-0.6-0.4-1.4-0.6-2.4-0.6
	c-1.9-0.1-3.9,0.5-5.1,1.5c-0.3,0.2-0.5,0.4-0.6,0.7l-7.9,12.4c-0.4,0.6-0.3,1.2,0.2,1.7c0.5,0.5,1.5,0.7,2.6,0.8
	c1.9,0.1,3.9-0.6,5.1-1.5c0.3-0.2,0.5-0.4,0.6-0.7l3-4.7c0.5-0.8,1.2-1.5,2.1-2.2c3.9-3.2,10.6-5.1,16.6-4.8c3.6,0.1,6.5,1,8.2,2.5
	c1.7,1.5,1.9,3.4,0.7,5.4l-7.5,12.1C85.6,45.2,85,46,84.1,46.7"/>
<path id="white_00000118386386942138785490000009560003197707224759_" class="st4" d="M96,110.4c-4.6,3.7-9.4,5-12,3.1
	c-1.6-1.1-2.2-3.2-1.7-5.9c0.1-0.4,0.2-0.9,0.4-1.4l0.3-0.9l0.7,0c1.7,0.1,3.5-0.1,5.5-0.8l0.5-0.2l-0.1,0.5
	c-0.1,0.7,0.1,1.2,0.5,1.5c0.8,0.6,2.2,0.2,3.6-0.9c0.3-0.2,0.6-0.5,0.9-0.8l14-15.9c0.7-0.8,1.2-1.7,1.3-2.4c0.2-0.8,0-1.4-0.5-1.8
	c-0.8-0.6-2.2-0.2-3.5,0.8c-0.3,0.2-0.6,0.5-0.9,0.8l-5.3,6C99,93.3,98,94.2,97,95c-4.5,3.6-9.3,4.8-12,3c-1.6-1.1-2.2-3.2-1.7-5.9
	c0.5-2.7,2.2-5.7,4.6-8.3l14.2-15.7c0.9-1,1.8-1.9,2.8-2.6c4.4-3.5,9.1-4.5,11.6-2.6c1.5,1.1,2.1,3.2,1.6,5.8
	c-0.1,0.4-0.2,0.9-0.3,1.3l-0.3,0.8l-0.7-0.1c-1.6-0.2-3.4,0-5.3,0.6l-0.5,0.1l0.1-0.5c0.1-0.7-0.1-1.2-0.5-1.5
	c-0.8-0.6-2.2-0.3-3.5,0.8c-0.3,0.2-0.6,0.5-0.8,0.8L92.1,86.8c-0.7,0.8-1.2,1.7-1.4,2.5c-0.2,0.8,0,1.5,0.5,1.8
	c0.8,0.6,2.2,0.2,3.6-0.9c0.3-0.2,0.6-0.5,0.9-0.8l5.4-6c0.9-1,1.8-1.9,2.8-2.7c4.5-3.5,9.1-4.6,11.6-2.7c1.5,1.1,2.1,3.2,1.6,5.8
	c-0.5,2.6-2.1,5.5-4.3,8.1l-13.9,15.8C98,108.6,97.1,109.5,96,110.4"/>
<path id="white_00000077321837114752254990000005540963343511843771_" class="st4" d="M34.5,105.5c-4.8-1.9-9.9-6.7-12.7-11.9
	c-1.7-3.1-2.4-6.1-1.9-8.3c0.1-0.4,0.2-0.7,0.3-1l0.3-0.6l0.8,0.9c1.8,2.2,3.7,4.2,5.8,6l0.6,0.5l0,0.4c-0.1,0.6,0.2,1.4,0.6,2.3
	c0.9,1.6,2.4,3,3.8,3.6c0.3,0.1,0.6,0.2,0.9,0.2l15.1,1c0.8,0.1,1.3-0.3,1.4-0.9c0.2-0.7-0.1-1.6-0.6-2.5c-0.9-1.6-2.5-3-3.9-3.6
	c-0.3-0.1-0.6-0.2-0.9-0.2l-5.8-0.3c-0.9-0.1-2-0.3-3.1-0.7c-4.8-1.9-9.9-6.5-12.7-11.8c-1.7-3.1-2.4-6-1.9-8.2
	c0.5-2.1,2.2-3.3,4.6-3.2l14.9,0.6c0.9,0,2,0.3,3.1,0.7c4.9,1.8,10.1,6.5,13.1,11.8c1.8,3.2,2.5,6.2,2,8.5c-0.1,0.4-0.2,0.7-0.4,1
	l-0.3,0.6l-0.8-1c-1.8-2.2-3.9-4.3-6-6.2l-0.6-0.5l0.1-0.5c0.1-0.6-0.2-1.5-0.6-2.3c-0.9-1.6-2.5-3-3.9-3.6
	c-0.3-0.1-0.6-0.2-0.9-0.2l-15-0.7c-0.7,0-1.2,0.3-1.4,1c-0.2,0.7,0.1,1.6,0.6,2.5c0.9,1.6,2.4,3,3.8,3.5c0.3,0.1,0.6,0.2,0.9,0.2
	l5.7,0.3c0.9,0.1,2,0.3,3.1,0.7c4.9,1.8,10.1,6.6,13.1,12c1.8,3.2,2.5,6.2,2,8.5c-0.5,2.2-2.3,3.3-4.8,3.1l-15.2-1.1
	C36.6,106.2,35.6,106,34.5,105.5"/>
</svg>
