<svg xmlns="http://www.w3.org/2000/svg" viewBox="0 0 742.5 139"><defs><style>.a{fill:#4a4a55;}.b{fill:#8d8d93;}</style></defs><path class="a" d="M59.46,100.34a24,24,0,0,1-13.72-3.88,19.79,19.79,0,0,1-8-10.61l8.35-3.07a15.44,15.44,0,0,0,5.45,6.61,14.37,14.37,0,0,0,8.27,2.43,12.15,12.15,0,0,0,7.88-2.39,8.27,8.27,0,0,0,2.94-6.82,7.43,7.43,0,0,0-.81-3.45A10.32,10.32,0,0,0,68,76.56a12.74,12.74,0,0,0-3.15-2.09c-1.43-.7-2.6-1.24-3.54-1.61S59,72,57.16,71.36c-2.28-.79-4-1.41-5.12-1.87a38.21,38.21,0,0,1-4.47-2.26,16.6,16.6,0,0,1-4.18-3.15A15.59,15.59,0,0,1,40.88,60a14.77,14.77,0,0,1,4-16.79Q50,38.64,58.77,38.64q7.33,0,12.06,3.24a15.63,15.63,0,0,1,6.35,8.61L69,53.21a9.55,9.55,0,0,0-4-4.38,13.3,13.3,0,0,0-7-1.67A10.7,10.7,0,0,0,51.4,49,6.28,6.28,0,0,0,49,54.32a5.5,5.5,0,0,0,1.88,4.09,12.84,12.84,0,0,0,3.92,2.64c1.36.57,3.44,1.34,6.22,2.3l3.79,1.41c.83.31,2,.84,3.62,1.58a24.82,24.82,0,0,1,3.67,2,34.36,34.36,0,0,1,3,2.43,12.67,12.67,0,0,1,2.6,3.11,17,17,0,0,1,1.53,3.83,17.49,17.49,0,0,1,.64,4.82q0,8.35-5.71,13.08T59.46,100.34Z"/><path class="a" d="M114.08,99.32,93.63,39.66h9.54l13.55,41.59a65.51,65.51,0,0,1,1.88,6.82,62.81,62.81,0,0,1,1.87-6.82l13.38-41.59h9.46L122.94,99.32Z"/><path class="a" d="M161.37,99.32V39.66h37V48H170.24V64.38h18.15v8.35H170.24V91h30v8.36Z"/><path class="a" d="M222.81,99.32V39.66h8.87V90.79h29.14v8.53Z"/><path class="a" d="M294.22,48.19V99.32h-8.86V48.19H268.49V39.66H311.1v8.53Z"/><path class="a" d="M329.42,99.32V39.66h37V48H338.28V64.38h18.15v8.35H338.28V91h30v8.36Z"/><path class="b" d="M421,100.34a25,25,0,0,1-9.67-1.79,19.77,19.77,0,0,1-7.07-4.77,26.5,26.5,0,0,1-4.65-7.08A34.6,34.6,0,0,1,397,78.35a50,50,0,0,1-.77-8.86,41.7,41.7,0,0,1,1.37-10.65A37.63,37.63,0,0,1,401.69,49a20.88,20.88,0,0,1,7.76-7.5A22.74,22.74,0,0,1,421,38.64q7.85,0,13,3.45a18.6,18.6,0,0,1,7.24,8.4l-8.09,3.75a16.39,16.39,0,0,0-5.07-5.37,15,15,0,0,0-14.53.34,13.69,13.69,0,0,0-4.86,5.45,30.32,30.32,0,0,0-2.51,7.12,36,36,0,0,0-.81,7.71,29.87,29.87,0,0,0,4,15.59A12.75,12.75,0,0,0,421,91.82q7.5,0,12.1-7.67l8.27,3.15Q435.74,100.34,421,100.34Z"/><path class="b" d="M484.22,100.34q-10.14,0-16.27-5.58t-6.14-18V39.66h8.86V76.73q0,8.35,3.58,11.72t10,3.37q6.39,0,10-3.37t3.62-11.72V39.66h8.86V76.73q0,12.45-6.05,18T484.22,100.34Z"/><path class="b" d="M531.86,39.66h22.58q9.88,0,14.36,4.52a15.57,15.57,0,0,1,4.47,11.42,13,13,0,0,1-2.09,7.12A14.66,14.66,0,0,1,565.09,68a15.08,15.08,0,0,1,7.8,5.62,14.59,14.59,0,0,1,2.51,8.27,17.52,17.52,0,0,1-4.34,11.71,15.37,15.37,0,0,1-6.18,4.18,24.69,24.69,0,0,1-9.16,1.58H531.86ZM553,64.29c3.63,0,6.42-.75,8.35-2.26a7.22,7.22,0,0,0,2.9-6q0-8.19-9.55-8.18h-14V64.29Zm3.41,26.85c3.58,0,6.13-.86,7.67-2.56a9.12,9.12,0,0,0,2.3-6.31q0-9.8-12.53-9.8H540.72V91.14Z"/><path class="b" d="M598.83,99.32V39.66h37V48H607.7V64.38h18.15v8.35H607.7V91h30v8.36Z"/><path class="b" d="M660.27,39.66H677a31.79,31.79,0,0,1,13.16,2.56,22.32,22.32,0,0,1,8.91,6.9,31,31,0,0,1,4.81,9.46A38.17,38.17,0,0,1,704,80a32.4,32.4,0,0,1-4.65,9.46,21.78,21.78,0,0,1-9,7.16,32.43,32.43,0,0,1-13.67,2.69H660.27ZM678.08,91a18.15,18.15,0,0,0,8.53-1.91,14.8,14.8,0,0,0,5.71-5.12,23.73,23.73,0,0,0,3-6.81,30.61,30.61,0,0,0,.94-7.63,26,26,0,0,0-4.35-15.21Q687.54,48,679,48h-9.88V91Z"/></svg>