<svg viewBox="0 0 107 128">
<path d="

	M94.2,22.8L94.2,22.8C83.8,7.9,63.2,3.5,48.4,13L22.3,29.6c-7.1,4.5-12,11.8-13.5,20c-1.2,6.9-0.2,14,3.1,20.2
	c-2.2,3.4-3.8,7.2-4.5,11.2c-1.5,8.4,0.5,17.1,5.4,24.1c10.4,14.9,30.9,19.3,45.8,9.8l26.1-16.6c7.1-4.5,12-11.8,13.5-20
	c1.2-6.9,0.2-14-3.1-20.2c2.2-3.4,3.8-7.2,4.5-11.2C101.1,38.5,99.1,29.8,94.2,22.8z

	M86.7,44.2c-0.2,0.8-0.4,1.6-0.6,2.4l-0.5,1.5
	l-1.3-1c-3.1-2.3-6.5-4-10.2-5.1l-1-0.3l0.1-1c0.1-1.4-0.3-2.7-1.1-3.9c-1.5-2.2-4.2-3.1-6.7-2.5c-0.6,0.2-1.1,0.4-1.6,0.7
	L37.7,51.7c-1.3,0.8-2.2,2.1-2.4,3.6c-0.3,1.5,0.1,3.1,1,4.4c1.5,2.2,4.2,3.1,6.7,2.5c0.6-0.2,1.1-0.4,1.6-0.7l10-6.3
	c1.6-1,3.4-1.8,5.3-2.3c8.4-2.2,17.3,1.1,22.2,8.2c3,4.2,4.2,9.4,3.3,14.5c-0.9,5-3.8,9.4-8.1,12.1l-26.1,16.6
	c-1.6,1-3.4,1.8-5.3,2.3h0c-8.4,2.2-17.3-1.1-22.2-8.2c-3-4.2-4.2-9.4-3.3-14.5c0.2-0.8,0.4-1.6,0.6-2.4l0.5-1.5l1.3,1
	c3.1,2.3,6.5,4,10.2,5.1l1,0.3l-0.1,1c-0.1,1.4,0.3,2.8,1.1,3.9c1.5,2.2,4.2,3.1,6.7,2.5c0.6-0.2,1.1-0.4,1.6-0.7l26.1-16.6
	c1.3-0.8,2.2-2.1,2.5-3.6c0.3-1.5-0.1-3.1-1-4.4c-1.5-2.2-4.2-3.1-6.7-2.5c-0.6,0.2-1.1,0.4-1.6,0.7l-10,6.3c-1.6,1-3.4,1.8-5.3,2.3
	c-8.4,2.2-17.3-1.1-22.2-8.2c-3-4.2-4.2-9.4-3.3-14.5c0.9-5,3.8-9.4,8.1-12.1l26.1-16.6c1.6-1,3.4-1.8,5.3-2.3
	c8.4-2.2,17.3,1.1,22.2,8.2C86.4,33.9,87.6,39.1,86.7,44.2z

	"/>
</svg>