<svg xmlns="http://www.w3.org/2000/svg" viewBox="0 0 451.15 300"><defs><style>.a{fill:#4a4a55;}.b{fill:#8d8d93;}.c{fill:#ff3e00;}.d{fill:#fff;}</style></defs><path class="a" d="M44.3,265.87a14.08,14.08,0,0,1-8-2.25,11.6,11.6,0,0,1-4.66-6.18l4.86-1.79a9.06,9.06,0,0,0,3.18,3.85,8.37,8.37,0,0,0,4.81,1.41,7,7,0,0,0,4.59-1.39,4.82,4.82,0,0,0,1.72-4,4.26,4.26,0,0,0-.48-2A5.93,5.93,0,0,0,49.27,252a7.28,7.28,0,0,0-1.84-1.22c-.83-.41-1.51-.73-2.06-.94S44,249.36,43,249c-1.32-.46-2.31-.83-3-1.09a22,22,0,0,1-2.61-1.32A9.82,9.82,0,0,1,35,244.76a8.85,8.85,0,0,1-1.46-2.41,8.58,8.58,0,0,1,2.33-9.78,11.79,11.79,0,0,1,8.09-2.63,12.16,12.16,0,0,1,7,1.89,9.13,9.13,0,0,1,3.7,5l-4.77,1.59a5.56,5.56,0,0,0-2.3-2.56,7.83,7.83,0,0,0-4.05-1,6.25,6.25,0,0,0-3.9,1.09,3.66,3.66,0,0,0-1.41,3.07,3.22,3.22,0,0,0,1.09,2.39A7.57,7.57,0,0,0,41.58,243c.79.33,2,.77,3.62,1.34l2.21.81c.48.19,1.18.49,2.11.92a14.69,14.69,0,0,1,2.13,1.17,20.87,20.87,0,0,1,1.74,1.41,7.59,7.59,0,0,1,1.51,1.81,10.24,10.24,0,0,1,.89,2.24,10.13,10.13,0,0,1,.38,2.8,9.36,9.36,0,0,1-3.33,7.62A13,13,0,0,1,44.3,265.87Z"/><path class="a" d="M76.11,265.28,64.2,230.54h5.56l7.89,24.22a35.75,35.75,0,0,1,1.09,4,38.41,38.41,0,0,1,1.1-4l7.79-24.22h5.51L81.28,265.28Z"/><path class="a" d="M103.66,265.28V230.54h21.53v4.86H108.82v9.53h10.57v4.86H108.82v10.62h17.47v4.87Z"/><path class="a" d="M139.44,265.28V230.54h5.16v29.77h17v5Z"/><path class="a" d="M181,235.5v29.78h-5.16V235.5H166v-5h24.81v5Z"/><path class="a" d="M201.52,265.28V230.54h21.54v4.86H206.68v9.53h10.57v4.86H206.68v10.62h17.47v4.87Z"/><path class="b" d="M254.85,265.87a14.38,14.38,0,0,1-5.63-1,11.39,11.39,0,0,1-4.12-2.78,15.42,15.42,0,0,1-2.71-4.12,20.32,20.32,0,0,1-1.54-4.86,28.89,28.89,0,0,1-.44-5.16,24.23,24.23,0,0,1,.79-6.2,22.07,22.07,0,0,1,2.41-5.74,12.12,12.12,0,0,1,4.51-4.36,13.31,13.31,0,0,1,6.73-1.67,13.45,13.45,0,0,1,7.59,2,10.9,10.9,0,0,1,4.22,4.89L261.94,239A9.33,9.33,0,0,0,259,235.9a7.81,7.81,0,0,0-4.14-1,7.69,7.69,0,0,0-4.32,1.19,8,8,0,0,0-2.83,3.17,17.66,17.66,0,0,0-1.46,4.15,20.6,20.6,0,0,0-.47,4.49A17.36,17.36,0,0,0,248.1,257a7.42,7.42,0,0,0,6.75,3.92q4.36,0,7-4.47l4.82,1.84Q263.42,265.87,254.85,265.87Z"/><path class="b" d="M291.67,265.87q-5.91,0-9.48-3.25t-3.57-10.49V230.54h5.16v21.59q0,4.86,2.08,6.82a8.14,8.14,0,0,0,5.81,2,8.23,8.23,0,0,0,5.83-2q2.12-2,2.11-6.82V230.54h5.16v21.59q0,7.25-3.52,10.49T291.67,265.87Z"/><path class="b" d="M319.41,230.54h13.15q5.76,0,8.36,2.63a9,9,0,0,1,2.61,6.65,7.56,7.56,0,0,1-1.22,4.14,8.51,8.51,0,0,1-3.55,3.06,8.67,8.67,0,0,1,4.54,3.27,8.44,8.44,0,0,1,1.47,4.81,10.24,10.24,0,0,1-2.53,6.83,8.94,8.94,0,0,1-3.6,2.43,14.41,14.41,0,0,1-5.33.92h-13.9Zm12.31,14.34a7.81,7.81,0,0,0,4.86-1.31,4.24,4.24,0,0,0,1.69-3.5c0-3.18-1.86-4.77-5.56-4.77h-8.14v9.58Zm2,15.63c2.09,0,3.57-.49,4.47-1.49a5.29,5.29,0,0,0,1.34-3.67q0-5.7-7.3-5.7h-7.64v10.86Z"/><path class="b" d="M358.41,265.28V230.54H380v4.86H363.58v9.53h10.57v4.86H363.58v10.62H381v4.87Z"/><path class="b" d="M394.19,230.54h9.73a18.54,18.54,0,0,1,7.67,1.49,12.82,12.82,0,0,1,5.18,4,17.85,17.85,0,0,1,2.81,5.51,22.2,22.2,0,0,1,.05,12.48,19,19,0,0,1-2.71,5.51,12.74,12.74,0,0,1-5.23,4.16,18.8,18.8,0,0,1-8,1.57h-9.53Zm10.38,29.87a10.6,10.6,0,0,0,5-1.11,8.59,8.59,0,0,0,3.32-3,13.38,13.38,0,0,0,1.74-4,17.88,17.88,0,0,0,.55-4.44,15.19,15.19,0,0,0-2.53-8.86,8.55,8.55,0,0,0-7.5-3.65h-5.75v25Z"/><path class="c" d="M290,52.09c-16.34-23.39-48.62-30.33-72-15.46L177,62.76a47,47,0,0,0-21.25,31.49,49.49,49.49,0,0,0,4.89,31.8,47,47,0,0,0-7,17.57,50.17,50.17,0,0,0,8.56,37.9c16.35,23.39,48.63,30.32,72,15.45l41-26.12a47,47,0,0,0,21.24-31.5,49.53,49.53,0,0,0-4.88-31.79,47,47,0,0,0,7-17.58A50.06,50.06,0,0,0,290,52.09"/><path class="d" d="M214,183.72a32.55,32.55,0,0,1-34.94-13A30.13,30.13,0,0,1,173.91,148a29,29,0,0,1,1-3.82l.77-2.36,2.1,1.54a52.78,52.78,0,0,0,16,8l1.53.46-.14,1.52a9.17,9.17,0,0,0,1.65,6.09,9.8,9.8,0,0,0,10.52,3.91,9,9,0,0,0,2.52-1.11l41-26.12a8.57,8.57,0,0,0,3.85-5.71,9.06,9.06,0,0,0-1.56-6.86,9.81,9.81,0,0,0-10.52-3.91,9.28,9.28,0,0,0-2.52,1.1l-15.64,10a29.5,29.5,0,0,1-8.32,3.66,32.54,32.54,0,0,1-34.94-12.95,30.15,30.15,0,0,1-5.15-22.79,28.29,28.29,0,0,1,12.77-18.94l41-26.12a29.69,29.69,0,0,1,8.33-3.66,32.55,32.55,0,0,1,34.94,13,30.15,30.15,0,0,1,5.15,22.79,29.12,29.12,0,0,1-1,3.83l-.77,2.35-2.1-1.54a52.92,52.92,0,0,0-16-8l-1.52-.46.14-1.52a9.2,9.2,0,0,0-1.65-6.1,9.81,9.81,0,0,0-10.52-3.9,9.15,9.15,0,0,0-2.52,1.1l-41,26.12a8.56,8.56,0,0,0-3.85,5.71,9.12,9.12,0,0,0,1.55,6.87A9.82,9.82,0,0,0,209.52,114a9.44,9.44,0,0,0,2.52-1.11l15.63-10A30.27,30.27,0,0,1,236,99.25a32.56,32.56,0,0,1,34.94,13A30.14,30.14,0,0,1,276.09,135a28.3,28.3,0,0,1-12.78,18.94l-41,26.12a30.27,30.27,0,0,1-8.33,3.66"/></svg>