<svg xmlns="http://www.w3.org/2000/svg" viewBox="0 0 856.09 139"><defs><style>.a{fill:#4a4a55;}.b{fill:#8d8d93;}.c{fill:#ff3e00;}.d{fill:#fff;}</style></defs><path class="a" d="M172.44,100.34a24.08,24.08,0,0,1-13.72-3.88,19.88,19.88,0,0,1-8-10.61l8.35-3.07a15.39,15.39,0,0,0,5.46,6.61,14.34,14.34,0,0,0,8.26,2.43,12.16,12.16,0,0,0,7.89-2.39,8.27,8.27,0,0,0,2.94-6.82,7.43,7.43,0,0,0-.81-3.45,10.1,10.1,0,0,0-1.84-2.6,12.55,12.55,0,0,0-3.15-2.09c-1.42-.7-2.6-1.24-3.54-1.61s-2.31-.87-4.13-1.5c-2.27-.79-4-1.41-5.11-1.87a38.2,38.2,0,0,1-4.48-2.26,16.71,16.71,0,0,1-4.17-3.15A15.34,15.34,0,0,1,153.86,60a14.39,14.39,0,0,1-1.1-5.71,14.21,14.21,0,0,1,5.11-11.08q5.12-4.52,13.89-4.52,7.34,0,12.06,3.24a15.68,15.68,0,0,1,6.35,8.61L182,53.21a9.51,9.51,0,0,0-4-4.38,13.26,13.26,0,0,0-6.94-1.67A10.7,10.7,0,0,0,164.39,49,6.28,6.28,0,0,0,162,54.32a5.5,5.5,0,0,0,1.88,4.09,12.6,12.6,0,0,0,3.92,2.64q2,.86,6.22,2.3l3.79,1.41c.82.31,2,.84,3.62,1.58a24.62,24.62,0,0,1,3.66,2,32.87,32.87,0,0,1,3,2.43,12.9,12.9,0,0,1,2.6,3.11,18,18,0,0,1,1.53,3.83,17.49,17.49,0,0,1,.64,4.82q0,8.35-5.71,13.08T172.44,100.34Z"/><path class="a" d="M227.06,99.32,206.61,39.66h9.55l13.55,41.59a65.19,65.19,0,0,1,1.87,6.82,63.11,63.11,0,0,1,1.88-6.82l13.38-41.59h9.45L235.93,99.32Z"/><path class="a" d="M274.36,99.32V39.66h37V48H283.22V64.38h18.15v8.35H283.22V91h30v8.36Z"/><path class="a" d="M335.8,99.32V39.66h8.86V90.79h29.15v8.53Z"/><path class="a" d="M407.21,48.19V99.32h-8.86V48.19H381.47V39.66h42.61v8.53Z"/><path class="a" d="M442.4,99.32V39.66h37V48H451.27V64.38h18.15v8.35H451.27V91h30v8.36Z"/><path class="b" d="M534,100.34a25,25,0,0,1-9.67-1.79,19.9,19.9,0,0,1-7.08-4.77,26.72,26.72,0,0,1-4.64-7.08A34.6,34.6,0,0,1,510,78.35a50,50,0,0,1-.77-8.86,42.14,42.14,0,0,1,1.36-10.65A37.66,37.66,0,0,1,514.68,49a20.85,20.85,0,0,1,7.75-7.5A22.75,22.75,0,0,1,534,38.64q7.83,0,13,3.45a18.66,18.66,0,0,1,7.24,8.4l-8.1,3.75a16.19,16.19,0,0,0-5.07-5.37,15,15,0,0,0-14.53.34,13.59,13.59,0,0,0-4.85,5.45,30.35,30.35,0,0,0-2.52,7.12,36,36,0,0,0-.81,7.71,29.88,29.88,0,0,0,4,15.59A12.74,12.74,0,0,0,534,91.82q7.5,0,12.1-7.67l8.26,3.15Q548.73,100.34,534,100.34Z"/><path class="b" d="M597.21,100.34q-10.14,0-16.28-5.58t-6.13-18V39.66h8.86V76.73q0,8.35,3.58,11.72t10,3.37q6.39,0,10-3.37t3.62-11.72V39.66h8.87V76.73q0,12.45-6.06,18T597.21,100.34Z"/><path class="b" d="M644.84,39.66h22.58q9.89,0,14.36,4.52a15.53,15.53,0,0,1,4.48,11.42,13,13,0,0,1-2.09,7.12A14.66,14.66,0,0,1,678.08,68a15,15,0,0,1,7.79,5.62,14.52,14.52,0,0,1,2.52,8.27A17.6,17.6,0,0,1,684,93.56a15.37,15.37,0,0,1-6.18,4.18,24.65,24.65,0,0,1-9.16,1.58H644.84ZM666,64.29q5.44,0,8.35-2.26a7.22,7.22,0,0,0,2.9-6q0-8.19-9.55-8.18h-14V64.29Zm3.41,26.85c3.57,0,6.13-.86,7.66-2.56a9.07,9.07,0,0,0,2.3-6.31q0-9.8-12.52-9.8H653.71V91.14Z"/><path class="b" d="M711.82,99.32V39.66h37V48H720.68V64.38h18.15v8.35H720.68V91h30v8.36Z"/><path class="b" d="M773.26,39.66H790a31.84,31.84,0,0,1,13.17,2.56,22.22,22.22,0,0,1,8.9,6.9,31,31,0,0,1,4.82,9.46,36.9,36.9,0,0,1,1.58,10.91A36.3,36.3,0,0,1,816.93,80a32.37,32.37,0,0,1-4.64,9.46,21.78,21.78,0,0,1-9,7.16,32.45,32.45,0,0,1-13.68,2.69H773.26ZM791.07,91a18.08,18.08,0,0,0,8.52-1.91,14.66,14.66,0,0,0,5.71-5.12,23.48,23.48,0,0,0,3-6.81,30.61,30.61,0,0,0,.93-7.63,26,26,0,0,0-4.34-15.21Q800.53,48,792,48h-9.89V91Z"/><path class="c" d="M110.29,28.32C99.89,13.43,79.35,9,64.49,18.48L38.41,35.11a29.94,29.94,0,0,0-13.52,20A31.5,31.5,0,0,0,28,75.38a30.17,30.17,0,0,0-4.48,11.19A31.88,31.88,0,0,0,29,110.68c10.4,14.89,30.94,19.3,45.79,9.84l26.09-16.63a29.9,29.9,0,0,0,13.51-20,31.49,31.49,0,0,0-3.1-20.23,30,30,0,0,0,4.47-11.19,31.87,31.87,0,0,0-5.44-24.11"/><path class="d" d="M62,112.08a20.72,20.72,0,0,1-22.24-8.24,19.21,19.21,0,0,1-3.28-14.5,18.64,18.64,0,0,1,.63-2.44l.49-1.5,1.33,1a33.49,33.49,0,0,0,10.21,5.1l1,.3-.09,1A5.78,5.78,0,0,0,51,96.62a6.23,6.23,0,0,0,6.69,2.49,5.94,5.94,0,0,0,1.61-.71L85.4,81.78a5.45,5.45,0,0,0,2.45-3.63,5.82,5.82,0,0,0-1-4.37,6.24,6.24,0,0,0-6.7-2.49,5.72,5.72,0,0,0-1.6.71l-10,6.34a19.05,19.05,0,0,1-5.3,2.33,20.71,20.71,0,0,1-22.23-8.25,19.14,19.14,0,0,1-3.28-14.5,18,18,0,0,1,8.13-12.05L72,29.25a19,19,0,0,1,5.3-2.33,20.72,20.72,0,0,1,22.24,8.24,19.21,19.21,0,0,1,3.28,14.5,18.24,18.24,0,0,1-.63,2.44l-.49,1.5-1.33-1a33.61,33.61,0,0,0-10.21-5.1l-1-.3.09-1a5.85,5.85,0,0,0-1.05-3.88,6.24,6.24,0,0,0-6.7-2.49,6,6,0,0,0-1.6.71L53.86,57.22a5.45,5.45,0,0,0-2.45,3.63,5.74,5.74,0,0,0,1,4.37,6.22,6.22,0,0,0,6.69,2.49A5.65,5.65,0,0,0,60.7,67l10-6.34a19.12,19.12,0,0,1,5.29-2.33,20.72,20.72,0,0,1,22.24,8.25,19.19,19.19,0,0,1,3.28,14.5,18,18,0,0,1-8.13,12L67.25,109.75a19,19,0,0,1-5.3,2.33"/></svg>